# Blender v2.83.16 OBJ File: ''
# www.blender.org
g textured_simple.002_1
v -0.033395 -0.005599 -0.060134
v 0.034626 0.005731 0.043503
v 0.034626 0.004108 0.043503
v -0.035018 0.007353 0.043503
v 0.005469 0.034888 -0.060134
v 0.013568 -0.029889 -0.056887
v -0.007483 -0.033134 0.041880
v -0.012344 0.034888 0.043503
v 0.033004 0.008969 -0.058511
v -0.026912 0.023551 -0.060134
v 0.021667 0.030027 0.041880
v 0.026528 -0.021790 0.043503
v -0.022052 -0.026651 -0.052028
v -0.028535 -0.020174 0.043503
v 0.031382 -0.012069 -0.058511
v 0.026528 0.023544 -0.056887
v -0.005861 -0.031511 -0.060134
v -0.028535 0.023551 0.043503
v -0.015575 0.033266 -0.053651
v 0.007092 -0.033134 0.041880
v 0.003847 0.036510 0.043503
v -0.033395 0.012214 -0.056887
v 0.021667 -0.026651 -0.045556
v 0.034626 -0.005592 0.041880
v 0.029766 0.020306 0.041880
v 0.015191 0.033266 -0.039074
v -0.031773 -0.015314 -0.026119
v -0.035018 -0.005599 0.041880
v -0.002623 0.036510 -0.039074
v -0.017198 -0.029889 0.043503
v 0.029766 -0.018552 -0.022883
v 0.024905 -0.020168 -0.060134
vn 0.7867 -0.6098 -0.0965
vn 0.0000 0.0000 1.0000
vn 0.0000 0.0000 -1.0000
vn 0.2643 0.2220 -0.9385
vn -0.5013 -0.5327 -0.6819
vn -0.2966 -0.9548 -0.0199
vn -0.6473 0.7622 -0.0101
vn -0.2535 0.7239 -0.6416
vn -0.5736 0.8191 0.0054
vn 0.0876 -0.9958 -0.0270
vn 0.0000 -0.9999 -0.0159
vn 0.1403 0.1403 0.9801
vn -0.9999 0.0029 -0.0160
vn -0.6277 0.1396 -0.7658
vn -0.9284 0.3716 0.0030
vn -0.8697 0.4934 -0.0136
vn 0.3780 -0.9258 -0.0056
vn 0.5028 -0.8642 0.0197
vn 1.0000 0.0000 0.0000
vn 0.9999 0.0023 -0.0158
vn 0.4668 -0.1459 0.8723
vn 0.9967 -0.0768 -0.0272
vn 0.9488 0.3158 -0.0051
vn 0.2140 0.1783 0.9604
vn 0.9130 0.4075 -0.0166
vn 0.7683 0.6401 -0.0042
vn 0.4871 0.8588 -0.1587
vn 0.6329 0.7740 -0.0197
vn 0.3427 0.9394 0.0102
vn 0.1906 0.9816 -0.0124
vn -0.8587 -0.5021 -0.1025
vn -0.7690 -0.6392 -0.0089
vn -0.9142 -0.4050 0.0142
vn -0.9999 0.0020 -0.0159
vn -0.4669 -0.1100 0.8775
vn -0.9760 -0.2173 -0.0155
vn -0.1128 0.9864 -0.1193
vn -0.2340 0.9722 -0.0084
vn -0.0997 0.9950 0.0078
vn 0.1642 0.9863 -0.0129
vn -0.3192 -0.9476 -0.0159
vn -0.6507 -0.7593 0.0073
vn 0.0380 -0.2050 0.9780
vn 0.0000 -0.4473 0.8944
vn 0.7992 -0.5967 -0.0723
vn 0.7071 -0.7071 0.0000
vn 0.8951 -0.4453 0.0219
vn 0.9537 -0.3005 -0.0114
vn 0.0879 0.0310 -0.9956
vn 0.2672 -0.0206 -0.9634
vn 0.1832 -0.4970 -0.8482
vn 0.6012 -0.7711 -0.2094
s off
f 15//1 23//1 32//1
f 3//2 2//2 4//2
f 4//2 2//2 8//2
f 5//3 1//3 10//3
f 3//2 4//2 12//2
f 12//2 4//2 14//2
f 9//4 5//4 16//4
f 1//3 5//3 17//3
f 13//5 1//5 17//5
f 7//6 13//6 17//6
f 4//2 8//2 18//2
f 10//7 18//7 19//7
f 5//8 10//8 19//8
f 18//9 8//9 19//9
f 17//10 6//10 20//10
f 7//11 17//11 20//11
f 8//2 2//2 21//2
f 2//12 11//12 21//12
f 1//13 4//13 22//13
f 10//14 1//14 22//14
f 4//15 18//15 22//15
f 18//16 10//16 22//16
f 20//17 6//17 23//17
f 12//18 20//18 23//18
f 2//19 3//19 24//19
f 9//20 2//20 24//20
f 3//21 12//21 24//21
f 15//22 9//22 24//22
f 2//23 9//23 25//23
f 11//24 2//24 25//24
f 9//25 16//25 25//25
f 16//26 11//26 25//26
f 16//27 5//27 26//27
f 11//28 16//28 26//28
f 21//29 11//29 26//29
f 5//30 21//30 26//30
f 1//31 13//31 27//31
f 13//32 14//32 27//32
f 27//33 14//33 28//33
f 4//34 1//34 28//34
f 14//35 4//35 28//35
f 1//36 27//36 28//36
f 5//37 19//37 29//37
f 19//38 8//38 29//38
f 8//39 21//39 29//39
f 21//40 5//40 29//40
f 13//41 7//41 30//41
f 14//42 13//42 30//42
f 12//2 14//2 30//2
f 20//43 12//43 30//43
f 7//44 20//44 30//44
f 23//45 15//45 31//45
f 12//46 23//46 31//46
f 24//47 12//47 31//47
f 15//48 24//48 31//48
f 5//49 9//49 32//49
f 9//50 15//50 32//50
f 17//3 5//3 32//3
f 6//51 17//51 32//51
f 23//52 6//52 32//52
