# Blender v2.83.17 OBJ File: ''
# www.blender.org
g textured_simple.001_1
v 0.044931 -0.019490 -0.044633
v -0.043104 -0.000361 -0.084818
v -0.043104 0.001555 -0.084818
v -0.043104 -0.008003 -0.008255
v -0.014402 0.030268 -0.008255
v 0.021948 0.020697 -0.080981
v 0.016210 -0.036723 -0.080981
v 0.025787 -0.034801 -0.008255
v 0.039183 0.005386 -0.008255
v -0.039276 0.030268 -0.077159
v 0.044931 -0.004178 -0.082899
v -0.012483 -0.030970 -0.079070
v 0.037264 -0.034801 -0.077159
v -0.035456 0.022613 -0.008255
v -0.050772 -0.000361 -0.075240
v 0.004723 -0.032885 -0.008255
v -0.010564 0.030268 -0.082899
v -0.050772 0.005386 -0.046536
v -0.027789 -0.023314 -0.065662
v 0.027696 -0.032885 -0.084818
v 0.010471 0.022613 -0.008255
v 0.048760 -0.006094 -0.073322
v -0.001006 0.030268 -0.063751
v 0.025787 0.013042 -0.084818
v 0.041102 -0.008010 -0.008255
v -0.012483 -0.027145 -0.008255
v -0.039276 0.030268 -0.048440
v -0.029708 -0.017574 -0.084818
v -0.010564 0.032184 -0.075240
v -0.031627 0.026437 -0.084818
v 0.037264 -0.034801 -0.046536
v 0.008561 -0.036723 -0.063751
vn -0.2942 -0.9546 0.0457
vn -0.0000 -0.0000 1.0000
vn -0.7806 0.0000 -0.6250
vn -0.7789 0.2565 -0.5723
vn -0.9345 0.2334 0.2688
vn -0.9354 0.3467 -0.0694
vn -0.9374 -0.3414 0.0684
vn -0.7067 -0.7075 0.0002
vn 0.0000 0.0000 -1.0000
vn 0.1579 -0.8933 -0.4208
vn 0.5632 -0.2863 -0.7752
vn 0.5136 0.8560 0.0585
vn 0.7095 0.7044 -0.0198
vn 0.7200 0.6770 -0.1524
vn 0.9295 -0.3660 -0.0468
vn 0.8662 -0.2928 -0.4049
vn 0.2934 0.9534 0.0708
vn 0.4104 0.9110 0.0408
vn 0.5780 0.5784 -0.5757
vn 0.2015 0.5178 -0.8314
vn 0.1036 0.0043 -0.9946
vn 0.9828 0.1408 0.1198
vn 0.9926 -0.0358 0.1158
vn -0.3160 -0.9474 0.0512
vn -0.4120 -0.9098 0.0491
vn -0.5282 -0.8449 0.0844
vn -0.3343 0.9195 0.2069
vn -0.8904 0.4240 0.1654
vn -0.9078 0.4194 0.0000
vn -0.1666 -0.5619 -0.8102
vn -0.6672 -0.5192 -0.5341
vn -0.5642 -0.8047 -0.1846
vn -0.6660 -0.7303 -0.1521
vn -0.1285 -0.4819 -0.8668
vn 0.2873 0.9292 -0.2325
vn -0.0485 0.9690 -0.2424
vn 0.1534 0.9875 0.0370
vn 0.3148 0.9434 -0.1046
vn -0.0422 0.9988 0.0261
vn -0.0666 0.9978 0.0000
vn -0.6059 0.2795 -0.7449
vn -0.1054 0.8433 -0.5270
vn 0.0499 0.2141 -0.9755
vn 0.0611 -0.9980 0.0183
vn 0.0909 -0.9959 0.0000
vn 0.8942 -0.4478 0.0000
vn 0.8571 -0.4584 0.2349
vn 0.8402 -0.4803 0.2519
vn 0.0459 -0.9987 0.0204
vn -0.2015 -0.9754 -0.0895
vn -0.0904 -0.9939 0.0625
s off
f 16//1 12//1 32//1
f 5//2 4//2 8//2
f 5//2 8//2 9//2
f 4//2 5//2 14//2
f 3//3 2//3 15//3
f 10//4 3//4 15//4
f 8//2 4//2 16//2
f 4//5 14//5 18//5
f 10//6 15//6 18//6
f 15//7 4//7 18//7
f 4//8 15//8 19//8
f 2//9 3//9 20//9
f 13//10 7//10 20//10
f 11//11 13//11 20//11
f 5//2 9//2 21//2
f 9//12 6//12 21//12
f 6//13 9//13 22//13
f 11//14 6//14 22//14
f 1//15 13//15 22//15
f 13//16 11//16 22//16
f 5//17 21//17 23//17
f 21//18 6//18 23//18
f 6//19 11//19 24//19
f 17//20 6//20 24//20
f 20//9 3//9 24//9
f 11//21 20//21 24//21
f 9//2 8//2 25//2
f 22//22 9//22 25//22
f 1//23 22//23 25//23
f 16//2 4//2 26//2
f 12//24 16//24 26//24
f 19//25 12//25 26//25
f 4//26 19//26 26//26
f 14//27 5//27 27//27
f 18//28 14//28 27//28
f 10//29 18//29 27//29
f 7//30 12//30 28//30
f 15//31 2//31 28//31
f 12//32 19//32 28//32
f 19//33 15//33 28//33
f 2//9 20//9 28//9
f 20//34 7//34 28//34
f 6//35 17//35 29//35
f 17//36 10//36 29//36
f 5//37 23//37 29//37
f 23//38 6//38 29//38
f 27//39 5//39 29//39
f 10//40 27//40 29//40
f 3//41 10//41 30//41
f 10//42 17//42 30//42
f 17//43 24//43 30//43
f 24//9 3//9 30//9
f 8//44 7//44 31//44
f 7//45 13//45 31//45
f 13//46 1//46 31//46
f 1//47 25//47 31//47
f 25//48 8//48 31//48
f 7//49 8//49 32//49
f 12//50 7//50 32//50
f 8//51 16//51 32//51
g textured_simple.001_2
v -0.045017 0.016867 0.008980
v 0.046844 -0.006098 0.039598
v 0.044924 -0.004181 0.045336
v -0.010571 -0.030974 0.064479
v -0.006749 0.007299 0.108504
v 0.025785 -0.034809 -0.008255
v -0.004838 0.028352 -0.008255
v -0.039284 -0.011831 -0.008255
v -0.001007 0.030270 0.060639
v 0.039181 0.005381 -0.008255
v -0.045017 -0.002270 0.049187
v 0.033439 -0.032892 0.047256
v -0.039284 0.028352 0.039610
v 0.004726 -0.009914 0.108504
v 0.020043 0.022606 0.062548
v -0.027799 0.030270 -0.008255
v 0.006637 0.007299 0.108504
v -0.010571 -0.006085 0.108504
v 0.044924 -0.021406 0.014729
v -0.012483 -0.027146 -0.008255
v -0.029710 -0.019488 0.060639
v -0.045017 0.014949 0.045347
v -0.048858 -0.000359 0.012809
v 0.010469 -0.032892 0.062548
v -0.023968 0.030270 0.054902
v 0.043013 -0.013749 0.049176
v 0.031528 0.013038 0.056811
v -0.043106 0.005381 -0.008255
v 0.014300 -0.034809 -0.008255
v 0.021954 0.016867 -0.008255
v 0.000904 0.020695 0.087440
v 0.035359 -0.034809 0.028124
vn -0.0427 -0.9988 0.0247
vn 0.0000 0.0000 -1.0000
vn 0.3454 0.9374 -0.0453
vn 0.0832 0.9960 -0.0324
vn -0.6903 0.7104 -0.1372
vn 0.0000 0.0000 1.0000
vn -0.2129 -0.8506 0.4809
vn 0.9862 0.0956 -0.1350
vn 0.8115 -0.2705 -0.5180
vn -0.4959 -0.8678 -0.0326
vn -0.5108 -0.8593 -0.0245
vn -0.7968 -0.4185 0.4358
vn -0.5277 -0.7395 0.4180
vn -0.9159 0.4008 0.0211
vn -0.7060 0.5116 0.4897
vn -0.8187 0.2338 0.5244
vn -0.8561 0.1125 0.5044
vn -0.7411 -0.6707 0.0284
vn -0.7617 -0.6463 0.0465
vn -0.9754 0.2201 0.0116
vn -0.9941 0.0237 0.1062
vn -0.0410 -0.8957 0.4427
vn 0.3037 -0.8365 0.4562
vn -0.5567 0.6837 0.4718
vn -0.0000 1.0000 0.0000
vn -0.1321 0.9912 0.0080
vn 0.9413 -0.0543 0.3331
vn 0.7477 -0.4251 0.5100
vn 0.8574 0.0348 0.5134
vn 0.8339 -0.0926 0.5441
vn 0.9404 -0.3173 0.1227
vn 0.8782 -0.4542 0.1497
vn 0.8114 0.5793 0.0780
vn 0.7896 0.6133 0.0207
vn 0.6352 0.7722 -0.0162
vn 0.8274 0.3521 0.4375
vn 0.6963 0.5951 0.4013
vn -0.7786 0.4789 -0.4055
vn -0.9618 0.1662 -0.2174
vn -0.9282 -0.2061 -0.3096
vn -0.2748 -0.9605 -0.0433
vn -0.0887 -0.9958 0.0222
vn 0.3932 0.9172 -0.0637
vn 0.5540 0.8309 -0.0524
vn 0.3019 0.9044 0.3016
vn 0.0000 0.8438 0.5366
vn 0.4345 0.8089 0.3962
vn -0.2590 0.8549 0.4496
vn -0.0851 0.9364 0.3406
vn 0.7031 -0.6866 -0.1850
vn 0.8654 -0.4825 0.1352
vn 0.0709 -0.9918 0.1065
vn 0.0000 -1.0000 0.0000
s off
f 56//52 61//52 64//52
f 39//53 38//53 40//53
f 38//53 39//53 42//53
f 39//54 41//54 47//54
f 39//53 40//53 48//53
f 41//55 39//55 48//55
f 33//56 45//56 48//56
f 37//57 46//57 49//57
f 46//57 37//57 50//57
f 36//58 46//58 50//58
f 42//59 34//59 51//59
f 38//60 42//60 51//60
f 40//53 38//53 52//53
f 36//61 40//61 52//61
f 40//62 36//62 53//62
f 50//63 43//63 53//63
f 36//64 50//64 53//64
f 45//65 33//65 54//65
f 37//66 45//66 54//66
f 50//67 37//67 54//67
f 43//68 50//68 54//68
f 40//69 53//69 55//69
f 53//70 43//70 55//70
f 54//71 33//71 55//71
f 43//72 54//72 55//72
f 46//73 36//73 56//73
f 44//74 46//74 56//74
f 45//75 37//75 57//75
f 41//76 48//76 57//76
f 48//77 45//77 57//77
f 34//78 35//78 58//78
f 46//79 44//79 58//79
f 35//80 49//80 58//80
f 49//81 46//81 58//81
f 51//82 34//82 58//82
f 44//83 51//83 58//83
f 35//84 34//84 59//84
f 34//85 42//85 59//85
f 42//86 47//86 59//86
f 49//87 35//87 59//87
f 47//88 49//88 59//88
f 48//53 40//53 60//53
f 33//89 48//89 60//89
f 55//90 33//90 60//90
f 40//91 55//91 60//91
f 36//92 52//92 61//92
f 52//53 38//53 61//53
f 56//93 36//93 61//93
f 42//53 39//53 62//53
f 39//94 47//94 62//94
f 47//95 42//95 62//95
f 47//96 41//96 63//96
f 37//97 49//97 63//97
f 49//98 47//98 63//98
f 57//99 37//99 63//99
f 41//100 57//100 63//100
f 38//101 51//101 64//101
f 51//102 44//102 64//102
f 44//103 56//103 64//103
f 61//104 38//104 64//104
